<?xml version="1.0" standalone="no"?>
<!DOCTYPE svg PUBLIC "-//W3C//DTD SVG 20010904//EN"
 "http://www.w3.org/TR/2001/REC-SVG-20010904/DTD/svg10.dtd">
<svg version="1.0" xmlns="http://www.w3.org/2000/svg"
 width="700.000000pt" height="700.000000pt" viewBox="0 0 700.000000 700.000000"
 preserveAspectRatio="xMidYMid meet">
<metadata>
Created by potrace 1.11, written by Peter Selinger 2001-2013
</metadata>
<g transform="translate(0.000000,700.000000) scale(0.100000,-0.100000)"
fill="#000000" stroke="none">
<path d="M2425 6133 c-473 -476 -863 -870 -867 -876 -3 -7 -9 -32 -13 -57 -3
-25 -8 -52 -10 -60 -2 -8 -7 -40 -10 -70 -3 -30 -10 -80 -15 -110 -5 -30 -12
-77 -15 -105 -4 -27 -8 -57 -10 -65 -3 -8 -7 -33 -10 -55 -14 -109 -19 -144
-32 -220 -2 -16 -6 -43 -9 -60 -2 -16 -6 -48 -9 -70 -4 -22 -8 -51 -10 -65
-14 -100 -27 -189 -30 -210 -4 -24 -27 -177 -40 -265 -3 -22 -12 -80 -20 -130
-7 -49 -16 -110 -19 -135 -4 -25 -8 -56 -10 -70 -3 -14 -17 -106 -31 -205 -14
-99 -28 -191 -30 -205 -14 -88 -45 -302 -49 -335 -3 -22 -7 -49 -10 -60 -2
-11 -7 -47 -11 -80 -3 -32 -8 -62 -10 -65 -1 -3 -6 -32 -10 -65 -3 -33 -11
-82 -16 -109 -5 -27 -12 -74 -15 -104 -3 -31 -7 -64 -10 -75 -2 -14 271 -293
1091 -1113 l1094 -1095 603 404 c332 222 916 613 1298 869 382 255 697 468
699 472 2 5 -255 269 -570 588 -821 830 -1079 1091 -1119 1132 l-34 36 54 54
c30 29 283 285 562 567 278 283 547 555 596 605 l90 90 -1077 1080 c-593 593
-1084 1084 -1092 1090 -11 9 -188 -165 -874 -853z"/>
</g>
</svg>
